<svg width="23" height="13" viewBox="0 0 23 13" fill="none" xmlns="http://www.w3.org/2000/svg">
<path d="M21.5886 2.16259L21.5802 2.17034L21.5722 2.17846L11.9307 11.9307C11.9304 11.931 11.9301 11.9313 11.9298 11.9316C11.5706 12.2897 10.8905 12.2894 10.5318 11.9307L0.777504 2.17644C0.547789 1.94672 0.484592 1.71012 0.502995 1.49542C0.522638 1.26624 0.640011 1.02584 0.832926 0.832926C1.02584 0.64001 1.26624 0.522639 1.49542 0.502994C1.70979 0.48462 1.946 0.547595 2.17538 0.776448C2.17573 0.7768 2.17608 0.777151 2.17644 0.777504L10.82 9.53194L11.1736 9.89001L11.5294 9.53419L20.2861 0.777504C20.5161 0.547531 20.7527 0.484678 20.9652 0.502977C21.1918 0.522492 21.4268 0.638918 21.6111 0.828181C21.7952 1.01733 21.9018 1.25137 21.9114 1.47413C21.9203 1.68244 21.8472 1.92384 21.5886 2.16259Z" fill="white" stroke="black"/>
</svg>
